# xmcd
#
# Track frame offsets: 
#        150
#        21678
#        34973
#        41973
#        59791
#        76910
#        85419
#        97268
#        115681
#        129913
#        133837
#        145311
#        152628
#        168262
#        170466
#
# Disc length: 2581 seconds
#
# Revision: 0
# Processed by: cddbd v1.5.2PL0 Copyright (c) Steve Scherf et al.
# Submitted via: ExactAudioCopy v0.90b4
#
DISCID=d90a130f
DTITLE=Barbra Streisand - Live In Concert 2006
DYEAR=2006
DGENRE=Pop
TTITLE0=Funny Girl Broadway Overture
TTITLE1=Starting Here, Starting Now
TTITLE2=Opening Remarks
TTITLE3=Down With Love
TTITLE4=The Way We Were
TTITLE5=Songwriting [dialogue]
TTITLE6=Ma Premiere Chanson
TTITLE7=Evergreen
TTITLE8=Come Rain Or Come Shine
TTITLE9=Funny Girl [dialogue]
TTITLE10=Funny Gir
TTITLE11=The Music That Makes Me Dance
TTITLE12=My Man
TTITLE13=People [dialogue]
TTITLE14=People
EXTD=
EXTT0=
EXTT1=
EXTT2=
EXTT3=
EXTT4=
EXTT5=
EXTT6=
EXTT7=
EXTT8=
EXTT9=
EXTT10=
EXTT11=
EXTT12=
EXTT13=
EXTT14=
PLAYORDER=
